# xmcd CD database file
#
# Track frame offsets:
#	150
#	14010
#	26755
#	40125
#	55930
#	68595
#	84335
#	97145
#	107880
#	121730
#	136835
#	155915
#	171310
#	184195
#	228230
#	241785
#	253725
#	279325
#	301320
#	309700
#
# Disc length: 4311 seconds
#
# Revision: 0
# Processed by: cddbd v1.5.2PL0 Copyright (c) Steve Scherf et al.
# Submitted via: CDex 1.50Beta7
#
DISCID=1110d514
DTITLE=Various Artist - Blues Legends CD2 Hoogie Boogie
DYEAR=2003
DGENRE=Blues
TTITLE0=Robert Johnson - Dust my broom
TTITLE1=Jimmy Reed - Caress me baby
TTITLE2=John Lee Hooker - Hoogie boogie
TTITLE3=Elmore James - Standing at the crossroads
TTITLE4=Sony Boy Williamson - Shake the boogie
TTITLE5=Big Joe Williams - Nobody knows when you're down and out
TTITLE6=Memphis Slim - Old Taylor
TTITLE7=Jimmy Reed - Oh John
TTITLE8=Jimmy Whiterspoon - 'Aint nobody's bussiness if I do
TTITLE9=Elmore James - It hurts me, too
TTITLE10=Mississipi John Hurt - trouble I had all my days
TTITLE11=Lonnie Johnson - He's a jelly roll baker
TTITLE12=Jimmy Reed - Go on to school
TTITLE13=Big Joe Turner - Everyday I have the blues
TTITLE14=Sonny Terry - Custard pie blues
TTITLE15=Big Joe Williams - Ride in my new car with me blues
TTITLE16=Big Joe Turner - Corrine, Corrina
TTITLE17=Mississipi John Hurt - Monday morning blues
TTITLE18=Big Joe Williams - Baby please don't go
TTITLE19=Elmore James - I believe
EXTD=YEAR: 2003
EXTT0=
EXTT1=
EXTT2=
EXTT3=
EXTT4=
EXTT5=
EXTT6=
EXTT7=
EXTT8=
EXTT9=
EXTT10=
EXTT11=
EXTT12=
EXTT13=
EXTT14=
EXTT15=
EXTT16=
EXTT17=
EXTT18=
EXTT19=
PLAYORDER=
